<svg width="118" height="19" viewBox="0 0 118 19" fill="none" xmlns="http://www.w3.org/2000/svg">
<path d="M0 18.08V0.08C0 0.08 4.5 -0.42 6 1.08C7.5 2.58 14.5 13.5 14.5 13.5C14.5 13.5 11 16.5 8 12C5 7.5 5 7.58 5 7.58V18.08H0Z" fill="#1447E6"/>
<path d="M15.5 12.58L12.5 8.07996C12.5 8.07996 16 2.57993 17.5 1.07998C19 -0.419979 23.5 0.08 23.5 0.08L15.5 12.58Z" fill="#1447E6"/>
<path d="M19 18.08V9.57996L24 2.07996V18.08H19Z" fill="#1447E6"/>
<path d="M32.3441 18.24C31.0161 18.24 29.8721 17.992 28.9121 17.496C27.9521 17 27.2081 16.296 26.6801 15.384C26.1681 14.472 25.9121 13.392 25.9121 12.144C25.9121 10.928 26.1601 9.86404 26.6561 8.95204C27.1681 8.04004 27.8641 7.32804 28.7441 6.81604C29.6401 6.28804 30.6561 6.02404 31.7921 6.02404C32.9121 6.02404 33.8721 6.26404 34.6721 6.74404C35.4721 7.22404 36.0881 7.90404 36.5201 8.78404C36.9681 9.66404 37.1921 10.712 37.1921 11.928V12.816H28.3361V11.088H35.0801L34.6961 11.448C34.6961 10.36 34.4561 9.52804 33.9761 8.95204C33.4961 8.36004 32.8081 8.06404 31.9121 8.06404C31.2401 8.06404 30.6641 8.22404 30.1841 8.54404C29.7201 8.84804 29.3601 9.28804 29.1041 9.86404C28.8641 10.424 28.7441 11.096 28.7441 11.88V12.048C28.7441 12.928 28.8801 13.656 29.1521 14.232C29.4241 14.808 29.8321 15.24 30.3761 15.528C30.9201 15.816 31.5921 15.96 32.3921 15.96C33.0481 15.96 33.7041 15.864 34.3601 15.672C35.0161 15.464 35.6161 15.144 36.1601 14.712L37.0001 16.728C36.4401 17.192 35.7361 17.56 34.8881 17.832C34.0401 18.104 33.1921 18.24 32.3441 18.24Z" fill="#1447E7"/>
<path d="M44.0799 18.24C43.0559 18.24 42.1519 17.992 41.3679 17.496C40.5999 17 39.9999 16.296 39.5679 15.384C39.1359 14.456 38.9199 13.368 38.9199 12.12C38.9199 10.856 39.1359 9.77604 39.5679 8.88004C39.9999 7.96804 40.5999 7.26404 41.3679 6.76804C42.1519 6.27204 43.0559 6.02404 44.0799 6.02404C45.0559 6.02404 45.9039 6.26404 46.6239 6.74404C47.3599 7.22404 47.8559 7.85604 48.1119 8.64004H47.8479V1.08004H50.8479V18H47.9199V15.504H48.1359C47.8959 16.336 47.4079 17 46.6719 17.496C45.9359 17.992 45.0719 18.24 44.0799 18.24ZM44.9199 15.96C45.8159 15.96 46.5359 15.64 47.0799 15C47.6239 14.344 47.8959 13.384 47.8959 12.12C47.8959 10.84 47.6239 9.88804 47.0799 9.26404C46.5359 8.62404 45.8159 8.30404 44.9199 8.30404C44.0239 8.30404 43.3039 8.62404 42.7599 9.26404C42.2159 9.88804 41.9439 10.84 41.9439 12.12C41.9439 13.384 42.2159 14.344 42.7599 15C43.3039 15.64 44.0239 15.96 44.9199 15.96Z" fill="#1447E7"/>
<path d="M53.7665 3.74404V0.81604H57.1265V3.74404H53.7665ZM53.9585 18V6.26404H56.9585V18H53.9585Z" fill="#1447E7"/>
<path d="M66.1957 18.24C65.3157 18.24 64.4677 18.16 63.6517 18C62.8517 17.856 62.1077 17.64 61.4197 17.352C60.7477 17.064 60.1477 16.72 59.6197 16.32L60.5557 13.896C61.0837 14.264 61.6357 14.584 62.2117 14.856C62.8037 15.112 63.4277 15.312 64.0837 15.456C64.7557 15.584 65.4597 15.648 66.1957 15.648C67.4597 15.648 68.3797 15.44 68.9557 15.024C69.5317 14.592 69.8197 14.04 69.8197 13.368C69.8197 13 69.7317 12.688 69.5557 12.432C69.3797 12.16 69.0917 11.928 68.6917 11.736C68.2917 11.544 67.7637 11.384 67.1077 11.256L64.4677 10.704C62.9477 10.384 61.8117 9.84804 61.0597 9.09604C60.3237 8.32804 59.9557 7.32004 59.9557 6.07204C59.9557 5.01604 60.2357 4.09604 60.7957 3.31204C61.3557 2.52804 62.1317 1.92004 63.1237 1.48804C64.1157 1.05604 65.2597 0.84004 66.5557 0.84004C67.3237 0.84004 68.0597 0.92004 68.7637 1.08004C69.4837 1.22404 70.1397 1.44804 70.7317 1.75204C71.3397 2.04004 71.8677 2.39204 72.3157 2.80804L71.3797 5.11204C70.7077 4.55204 69.9717 4.13604 69.1717 3.86404C68.3717 3.57604 67.4917 3.43204 66.5317 3.43204C65.7957 3.43204 65.1637 3.53604 64.6357 3.74404C64.1077 3.95204 63.6997 4.24804 63.4117 4.63204C63.1397 5.00004 63.0037 5.44004 63.0037 5.95204C63.0037 6.52804 63.1957 6.99204 63.5797 7.34404C63.9637 7.68004 64.6197 7.94404 65.5477 8.13604L68.1637 8.68804C69.7477 9.02404 70.9237 9.55204 71.6917 10.272C72.4757 10.992 72.8677 11.952 72.8677 13.152C72.8677 14.16 72.5957 15.048 72.0517 15.816C71.5077 16.584 70.7317 17.184 69.7237 17.616C68.7317 18.032 67.5557 18.24 66.1957 18.24Z" fill="black"/>
<path d="M80.4752 18.24C78.9072 18.24 77.7392 17.848 76.9712 17.064C76.2032 16.28 75.8192 15.136 75.8192 13.632V8.52004H73.5632V6.26404H75.8192V2.76004H78.8192V6.26404H82.3712V8.52004H78.8192V13.464C78.8192 14.232 78.9872 14.808 79.3232 15.192C79.6592 15.576 80.2032 15.768 80.9552 15.768C81.1792 15.768 81.4112 15.744 81.6512 15.696C81.8912 15.632 82.1392 15.568 82.3952 15.504L82.8512 17.712C82.5632 17.872 82.1952 18 81.7472 18.096C81.3152 18.192 80.8912 18.24 80.4752 18.24Z" fill="black"/>
<path d="M89.5449 18.24C88.3289 18.24 87.2729 17.992 86.3769 17.496C85.4809 17 84.7849 16.296 84.2889 15.384C83.7929 14.456 83.5449 13.368 83.5449 12.12C83.5449 10.872 83.7929 9.79204 84.2889 8.88004C84.7849 7.96804 85.4809 7.26404 86.3769 6.76804C87.2729 6.27204 88.3289 6.02404 89.5449 6.02404C90.7609 6.02404 91.8169 6.27204 92.7129 6.76804C93.6089 7.26404 94.3049 7.96804 94.8009 8.88004C95.2969 9.79204 95.5449 10.872 95.5449 12.12C95.5449 13.368 95.2969 14.456 94.8009 15.384C94.3049 16.296 93.6089 17 92.7129 17.496C91.8169 17.992 90.7609 18.24 89.5449 18.24ZM89.5449 15.96C90.4409 15.96 91.1609 15.64 91.7049 15C92.2489 14.344 92.5209 13.384 92.5209 12.12C92.5209 10.84 92.2489 9.88804 91.7049 9.26404C91.1609 8.62404 90.4409 8.30404 89.5449 8.30404C88.6489 8.30404 87.9289 8.62404 87.3849 9.26404C86.8409 9.88804 86.5689 10.84 86.5689 12.12C86.5689 13.384 86.8409 14.344 87.3849 15C87.9289 15.64 88.6489 15.96 89.5449 15.96Z" fill="black"/>
<path d="M98.021 18V6.26404H100.949V9.09604H100.709C100.933 8.13604 101.373 7.40804 102.029 6.91204C102.685 6.40004 103.557 6.10404 104.645 6.02404L105.557 5.95204L105.749 8.49604L104.021 8.66404C103.045 8.76004 102.309 9.06404 101.813 9.57604C101.317 10.072 101.069 10.776 101.069 11.688V18H98.021Z" fill="black"/>
<path d="M113.016 18.24C111.688 18.24 110.544 17.992 109.584 17.496C108.624 17 107.88 16.296 107.352 15.384C106.84 14.472 106.584 13.392 106.584 12.144C106.584 10.928 106.832 9.86404 107.328 8.95204C107.84 8.04004 108.536 7.32804 109.416 6.81604C110.312 6.28804 111.328 6.02404 112.464 6.02404C113.584 6.02404 114.544 6.26404 115.344 6.74404C116.144 7.22404 116.76 7.90404 117.192 8.78404C117.64 9.66404 117.864 10.712 117.864 11.928V12.816H109.008V11.088H115.752L115.368 11.448C115.368 10.36 115.128 9.52804 114.648 8.95204C114.168 8.36004 113.48 8.06404 112.584 8.06404C111.912 8.06404 111.336 8.22404 110.856 8.54404C110.392 8.84804 110.032 9.28804 109.776 9.86404C109.536 10.424 109.416 11.096 109.416 11.88V12.048C109.416 12.928 109.552 13.656 109.824 14.232C110.096 14.808 110.504 15.24 111.048 15.528C111.592 15.816 112.264 15.96 113.064 15.96C113.72 15.96 114.376 15.864 115.032 15.672C115.688 15.464 116.288 15.144 116.832 14.712L117.672 16.728C117.112 17.192 116.408 17.56 115.56 17.832C114.712 18.104 113.864 18.24 113.016 18.24Z" fill="black"/>
</svg>
